<svg width="426" height="400" xmlns="http://www.w3.org/2000/svg">
 <!-- Created with SVG Editor - http://github.com/mzalive/SVG Editor/ -->

 <g>
  <title>background</title>
  <rect fill="#fff" id="canvas_background" height="402" width="428" y="-1" x="-1"/>
  <g display="none" overflow="visible" y="0" x="0" height="100%" width="100%" id="canvasGrid">
   <rect fill="url(#gridpattern)" stroke-width="0" y="0" x="0" height="100%" width="100%"/>
  </g>
 </g>
 <g>
  <title>Layer 1</title>
  <defs>
   <linearGradient y2="0.501095" x2="0.9998" y1="0.501095" x1="0.000424" id="svg_16">
    <stop stop-color="#9D00FF"/>
    <stop stop-color="#29E7E2" offset="1"/>
   </linearGradient>
   <linearGradient y2="0.499248" x2="1.001203" y1="0.499248" x1="0.00044" id="svg_15">
    <stop stop-color="#9D00FF"/>
    <stop stop-color="#29E7E2" offset="1"/>
   </linearGradient>
   <linearGradient y2="0.500002" x2="0.998914" y1="0.500002" x1="-0.003997" id="svg_14">
    <stop stop-color="#9D00FF"/>
    <stop stop-color="#29E7E2" offset="1"/>
   </linearGradient>
   <linearGradient y2="0.500625" x2="0.997914" y1="0.500625" x1="0.001074" id="svg_13">
    <stop stop-color="#9D00FF"/>
    <stop stop-color="#29E7E2" offset="1"/>
   </linearGradient>
   <linearGradient y2="0.49929" x2="0.995229" y1="0.49929" x1="-0.00575" id="svg_12">
    <stop stop-color="#9D00FF"/>
    <stop stop-color="#29E7E2" offset="1"/>
   </linearGradient>
   <linearGradient y2="0.499281" x2="0.998869" y1="0.499281" x1="-0.000382" id="svg_11">
    <stop stop-color="#9D00FF"/>
    <stop stop-color="#29E7E2" offset="1"/>
   </linearGradient>
   <linearGradient y2="0.499708" x2="1.00079" y1="0.499708" x1="0.000481" id="svg_10">
    <stop stop-color="#9D00FF"/>
    <stop stop-color="#29E7E2" offset="1"/>
   </linearGradient>
  </defs>
  <g stroke="null" id="svg_35">
   <path stroke="null" id="svg_18" fill="#D0B33E" d="m406.616753,163.125113c-1.46798,-0.995093 -2.935961,-1.991347 -4.543196,-2.987601c1.473783,0.996254 2.941763,1.992508 4.543196,2.987601c0,0.124749 -0.133453,0 0,0c0,0 0,0.124749 0,0zm-92.168863,113.267746c-12.556165,-7.717051 -27.650833,-9.832568 -41.008295,-15.558852c-13.75898,-5.849293 -26.58205,-13.566344 -37.802527,-23.026985c0,0.124749 0,0.249499 0.132873,0.498417c11.087604,9.334731 23.777802,16.927613 37.402169,22.653317c13.490914,5.726284 28.585583,7.842381 41.008875,15.558852c21.505623,13.194417 31.925383,36.47032 30.321629,60.119891c0,0.497257 0,0.995093 -0.132873,1.493511c0,0 0,0.124169 0,0.248918c0.132873,-0.124749 0.266906,-0.248918 0.400939,-0.373668c0,-0.497837 0,-0.995093 0.132873,-1.493511c1.469721,-23.649571 -8.950039,-47.049643 -30.455662,-60.119891zm-52.62971,-76.300169c-0.134033,0 -0.134033,0 -0.266906,0c10.151694,3.23652 19.768997,7.468713 28.985941,12.571251c-9.082911,-5.102538 -18.700794,-9.334731 -28.719035,-12.571251zm-29.38746,162.060398c7.213412,6.721958 15.361574,12.820749 24.044707,18.048616l0.132873,0c0,0 0,0 -0.132873,0c-8.5491,-5.352036 -16.697842,-11.326659 -24.044707,-18.048616zm3.072315,-199.77473l0.134033,-0.124749c4.007064,-19.666296 2.003532,-39.456761 -2.004112,-58.999468c-2.804829,-12.197583 -2.003532,-24.893003 2.271018,-36.46974c-4.408003,11.576737 -5.343333,24.272157 -2.404471,36.46974c4.007064,19.542707 6.010597,39.333172 2.003532,59.124217zm-22.708439,-102.314755c2.939442,-3.983275 6.011757,-7.841801 9.48443,-11.451408c-3.472673,3.609607 -6.544988,7.468133 -9.48443,11.451408zm-5.342753,285.41079c-1.736627,1.867178 -3.607286,3.734357 -5.342753,5.476786c1.869499,-1.742429 3.606126,-3.484858 5.342753,-5.476786zm-14.560277,-265.247238c1.736627,13.692834 -2.938862,26.388254 -4.674908,39.70684c-1.870079,14.065341 -1.336268,28.254272 1.469141,42.194864c0.133453,0.124749 0.266906,0.249499 0.534391,0.373668c-2.805409,-13.940592 -3.33922,-28.254272 -1.469141,-42.319613c1.736627,-13.442755 6.411535,-26.262924 4.541456,-39.831009c-2.271018,-16.927613 -11.754868,-31.241293 -25.246362,-41.572858c13.224009,10.455154 22.708439,24.769414 24.845424,41.448108zm-1.736046,213.592314c0.93475,4.72945 1.736046,9.335311 2.003532,14.064761c-0.267486,-4.72945 -0.93533,-9.45948 -1.87066,-14.190091c-3.33922,-14.31368 -4.27397,-29.001607 -3.071735,-43.439456c-1.469721,14.437849 -0.400939,29.125776 2.938862,43.564785zm-1.336268,-56.012447c-10.552632,8.838055 -22.440953,16.181438 -35.131151,21.782393c-12.956523,5.725704 -27.383347,8.215468 -39.405701,15.558852c-14.025306,8.838055 -23.910094,21.907142 -28.45213,36.594489c4.542036,-14.687347 14.426824,-27.632846 28.319257,-36.46974c12.022354,-7.343384 26.314565,-9.957897 39.40454,-15.558852c12.824231,-5.725704 24.579098,-13.069087 35.131731,-21.782393c0.133453,0 0.133453,0 0.133453,-0.124749zm-151.343561,9.460641c0,0 -0.134033,0 0,0c-0.268066,0 -0.268066,-0.124749 -0.400939,-0.124749c0.266906,0.124749 0.667844,0.124749 0.93475,0.248338c-0.266906,0 -0.400939,0 -0.533811,-0.123589zm82.417528,-22.529728c13.891853,-10.828822 29.921271,-19.168459 47.018891,-24.520495c-0.132873,0 -0.266906,0 -0.266906,-0.124749c-17.231073,5.352616 -33.127038,13.692254 -47.018891,24.520495c-6.812474,5.353197 -12.824231,11.451408 -20.037063,16.181438c-7.881256,4.978949 -16.697262,8.464387 -26.181112,9.957897c-4.808941,0.747335 -9.884788,0.995674 -15.094668,0.747335c-0.667844,0 -1.469141,-0.12533 -2.271018,-0.12533c-1.201655,-0.124749 -2.404471,-0.248338 -3.606126,-0.373088c-0.667844,-0.124169 -1.202816,-0.124169 -1.736627,-0.248918c-0.400939,-0.124749 -0.93475,-0.124749 -1.335688,-0.248918c-1.068783,-0.248918 -2.270438,-0.373668 -3.33922,-0.622586c-0.667844,-0.124749 -1.335688,-0.248918 -2.003532,-0.497257c-1.202816,-0.250079 -2.538504,-0.622586 -3.874192,-0.996254c0,0 0,0 -0.134033,0c11.220477,3.360689 22.975344,4.356362 33.527977,2.613934c9.350977,-1.494091 18.301016,-4.85478 26.181692,-9.957897c7.480318,-4.854199 13.358042,-10.953571 20.170515,-16.305607zm-81.749684,22.778066c0.667844,0.248918 1.468561,0.497837 2.136405,0.622586c0,0 0,0 0.134033,0c-0.93475,-0.124749 -1.602594,-0.373668 -2.270438,-0.622586c-0.134033,0 -0.134033,0 0,0zm125.69626,131.814779c0.134033,0 0.268066,0 0.400939,0.124749c0,0 0,0 0.134033,0c13.490914,-7.96655 25.780754,-17.55136 36.734325,-28.380181c-11.087604,10.828822 -23.510316,20.289462 -37.269296,28.255432c0.134033,0 0.134033,0 0,0zm-9.884788,-348.766621c-0.132873,0 -0.132873,-0.124749 -0.266906,-0.124749c1.202816,0.622586 2.538504,1.368761 3.740159,1.991347c-1.068783,-0.622586 -2.270438,-1.244012 -3.473253,-1.866598zm6.14463,112.894658c-6.545568,-3.360689 -13.357461,-6.223541 -20.436841,-8.588556c-9.350977,-3.11177 -18.166983,-6.472459 -26.181112,-11.202489c8.148162,4.85478 17.231073,8.339637 26.715503,11.451408c6.812474,2.365015 13.490914,5.103698 19.902449,8.339637zm-64.51745,13.442755c0.667844,0.373668 1.469141,0.871505 2.136985,1.244592c0.400358,0.248918 0.667844,0.497837 1.068783,0.622586c1.068202,0.622586 2.136985,1.368761 3.072315,1.991347c1.335688,0.871505 2.671376,1.867178 4.007064,2.862272c0.667844,0.498417 1.335688,0.996254 1.870079,1.61884c1.335688,0.995674 2.537923,1.991347 3.873612,3.11177c1.602594,1.368761 3.072315,2.613934 4.674908,3.982695c1.068783,0.996254 2.271598,1.867178 3.340381,2.738683c0.93475,0.870924 2.003532,1.61826 3.072315,2.489184c-9.084072,-7.094465 -17.098201,-15.309933 -27.116442,-20.910888c-12.957103,-6.970296 -28.051772,-9.708979 -42.878954,-7.841801c-5.476786,0.871505 -10.819538,2.365015 -15.895385,4.232193c5.075847,-1.867178 10.418599,-3.235939 15.895385,-4.107444c14.960055,-1.743009 29.921851,0.995093 42.878954,7.96597zm-14.827763,-29.250526c0,-0.124749 0,-0.124749 0,0c-20.036482,2.987601 -39.405701,8.836894 -57.572104,17.301281c0,0 -0.133453,0 -0.133453,0.124749c0,0 0.133453,0 0.133453,-0.124749c18.166403,-8.464387 37.535621,-14.31368 57.572104,-17.301281zm-0.132873,144.883286c-1.202816,-0.248338 -2.538504,-0.373088 -3.740159,-0.622006c1.335688,0.248918 2.537343,0.498417 3.740159,0.622006zm-46.619113,-26.387674c0.667844,0.249499 1.335688,0.622586 2.137565,0.747335c-0.134033,0 -0.268066,-0.124749 -0.534972,-0.248918c-0.400939,-0.124749 -0.93475,-0.373668 -1.602594,-0.498417zm-4.007064,-1.61768l-0.134033,-0.124749c0,0 0,0 0.134033,0.124749zm-7.347445,10.579323c1.202235,0.498417 2.270438,1.121003 3.473253,1.61884c-1.202816,-0.622586 -2.271018,-1.120423 -3.473253,-1.61884z"/>
   <path stroke="null" id="svg_19" fill="#D0B33E" d="m219.745165,16.317786c4.406842,0.123589 8.948878,0.497257 13.356301,0.870344c-4.407423,-0.497837 -8.815426,-0.746755 -13.356301,-0.870344zm-6.678441,43.916404c2.938282,-3.980954 6.010597,-7.837739 9.482689,-11.445025c-3.472093,3.607286 -6.544408,7.464071 -9.482689,11.445025zm210.765436,110.228504l0.133453,0c-1.34033,-7.961908 -3.075216,-15.924396 -5.477366,-23.762135c-9.753657,-31.849373 -27.781385,-60.837635 -52.491035,-84.59977c-6.411535,-6.096471 -13.088815,-11.818693 -20.301647,-17.044819c-22.171727,-16.670571 -47.682674,-28.862932 -75.062539,-35.954496c-38.065951,-9.828506 -78.40176,-9.703757 -116.333678,0.373668c-9.617303,2.488024 -19.099992,5.722223 -28.182323,9.579588c-13.356881,5.598634 -26.178791,12.441279 -38.065371,20.527937c-7.747223,5.224966 -15.092928,10.823019 -22.038274,16.91949c-28.315776,25.006147 -48.750296,56.856101 -58.901409,91.939673c-2.003532,6.718476 -3.606126,13.561122 -4.674908,20.527937c-1.736627,10.450512 -2.671376,20.901604 -2.671376,31.476286c0,10.325763 0.801877,20.652106 2.671376,30.978449c1.201655,6.966815 2.671376,14.058379 4.674908,20.901024c12.688457,44.041154 41.404011,82.733172 81.206589,109.356999c11.619674,7.837739 24.174679,14.556215 37.264074,20.154849c9.215784,3.859106 18.699054,7.090984 28.448648,9.702016c37.398107,9.956737 76.933199,10.328084 114.464179,0.997995c9.215784,-2.239686 18.165242,-5.100217 26.980088,-8.587395c18.565021,-7.213412 35.928386,-16.917749 51.555705,-28.736442c6.67786,-5.100797 13.089395,-10.450512 19.099412,-16.173315c24.70965,-23.763296 42.74318,-52.875147 52.491035,-84.72452c2.268697,-7.71299 4.003583,-15.550729 5.21046,-23.513217l0,-0.497837c3.202866,-19.905351 3.202866,-39.936031 0,-59.841961zm-75.06486,-44.912078c0.267486,-0.498417 0.400939,-0.870924 0.534391,-1.244592c0.667844,-1.49293 1.335688,-2.985861 2.003532,-4.60238c0.400358,-1.120423 0.93533,-2.115516 1.202235,-3.235359c0.266906,-0.497837 0.400939,-0.995674 0.533811,-1.368181c0.534972,-1.244012 0.93475,-2.612773 1.335688,-3.856785c0.266906,-0.871505 0.534972,-1.741849 0.801877,-2.612773c0.400939,-1.119263 0.667844,-2.239686 0.93475,-3.483697c0.400939,-1.244012 0.667844,-2.363855 0.93475,-3.607867c0.134033,-0.497837 0.266906,-1.119263 0.400939,-1.617099c0.132873,-0.497257 0.266906,-1.119843 0.400939,-1.61768c0.266906,-1.119843 0.533811,-2.363855 0.667844,-3.483117c0.533811,-2.861692 0.93475,-5.598634 1.201655,-8.460325c0.266906,-2.861111 0.533811,-5.722803 0.533811,-8.584494l0,-0.248918c18.297535,18.910257 32.188227,41.304792 40.735006,65.440595c0,0.124169 0.133453,0.248918 0.133453,0.248918l-0.133453,-0.124749c-3.469772,-1.741849 -7.078799,-3.358368 -10.682024,-4.851878c-1.201075,-0.497837 -2.40215,-0.995674 -3.609027,-1.368181c-1.601433,-0.622586 -3.336319,-1.119843 -4.937752,-1.741849c-1.34033,-0.497257 -2.80831,-0.870924 -4.142838,-1.368761c-1.334528,-0.372507 -2.669055,-0.746175 -4.009385,-1.119263c-1.734886,-0.498417 -3.469772,-0.870924 -5.204658,-1.368761c-0.800717,-0.248918 -1.46798,-0.373668 -2.272178,-0.497837c-0.667844,-0.124749 -1.469141,-0.248918 -2.136985,-0.497257c-2.805409,-0.622586 -5.743691,-1.120423 -8.681973,-1.49293c-0.533811,-0.124749 -1.067622,-0.124749 -1.602594,-0.248918c-0.93475,-0.124749 -1.869499,-0.248918 -2.938282,-0.373668c-1.068783,-0.124169 -2.003532,-0.248918 -3.071735,-0.372507c0.400358,-0.622586 0.801297,-1.369341 1.068202,-2.239686zm-69.452881,-98.658149l0.133453,0c3.472673,1.119843 7.078799,2.488024 10.818958,3.856785c16.428036,6.468978 31.787869,15.053472 45.812014,25.379815c2.938282,2.239686 5.742531,4.354042 8.414487,6.717896l0.133453,0.124749c0.534391,2.861111 0.667844,5.722803 0.667844,8.584494c-0.266906,22.767042 -13.489754,43.668066 -34.726151,54.864753c-12.288679,6.345389 -26.579149,8.460325 -39.267606,14.058959c-12.955943,5.722803 -24.843683,13.062705 -35.394575,22.020867l0,-0.124749l-0.134033,0.124749c4.007645,-19.657593 2.004112,-39.562943 -2.003532,-59.095786c-2.804249,-12.192361 -2.003532,-24.881978 2.404471,-36.452333c0.400939,-1.119843 0.93533,-2.363855 1.469141,-3.483117c0.667844,-1.61768 1.602594,-3.359528 2.404471,-4.977208c0.266906,-0.497257 0.533811,-1.119263 0.93475,-1.616519c0.667844,-0.995093 1.202816,-1.990767 1.869499,-3.11061c8.681973,-12.441279 21.504463,-21.771949 36.463357,-26.872745zm41.003653,115.701808c-21.770208,27.993168 -55.428736,46.031921 -92.425905,49.640368c21.771368,-28.116757 55.429317,-46.15667 92.425905,-49.640368zm-154.265596,-121.051523l0.133453,0c0,0 0.133453,0 0.267486,0l12.688457,-2.488024l0.533811,-0.124749c1.469721,-0.248918 3.072315,-0.497837 4.540875,-0.622006c2.404471,-0.373668 4.942394,-0.622006 7.346865,-0.870924c1.201655,-0.124169 2.40389,-0.248918 3.606126,-0.373088c2.003532,-0.124749 3.873031,-0.248918 5.876564,-0.373668c3.873031,-0.248918 7.746643,-0.372507 11.753707,-0.372507c1.201655,0 2.40389,0 3.472673,0c0.534391,0 1.068202,0 1.736046,0c0.534972,0 1.202816,0 1.736627,0c4.406842,0.123589 8.948878,0.497257 13.356301,0.870344c2.270438,0.248918 4.407423,0.497837 6.678441,0.746175c0.800717,0.124749 1.468561,0.248918 2.270438,0.248918c1.335688,0.124749 2.537343,0.373668 3.873031,0.622586c0.667844,0.124169 1.335688,0.248918 2.003532,0.372507c3.33922,0.497837 6.678441,1.120423 9.883628,1.866598c0.133453,0 0.133453,0 0.266906,0l-0.133453,0c-10.151114,5.598634 -19.366317,12.192361 -27.781385,19.781762c-1.201655,1.119843 -2.404471,2.239105 -3.606126,3.483117c-0.266906,0.248918 -0.533811,0.497837 -0.667844,0.746175c-1.201655,1.120423 -2.40331,2.364435 -3.472093,3.608447c-3.473253,3.607867 -6.544988,7.464651 -9.48327,11.445606c0,0 -0.133453,0.124169 -0.133453,0.248918c-13.223428,-15.178221 -29.117073,-28.365676 -46.747344,-38.816188zm154.265596,236.256655c-36.996588,-3.483697 -70.654537,-21.647199 -92.425905,-49.640368c36.997169,3.484278 70.655697,21.52303 92.425905,49.640368zm-107.518252,-74.770684c-13.089395,-29.486099 -13.089395,-62.578903 0,-92.064422c13.088815,29.485518 13.088815,62.578323 0,92.064422zm0,126.401819c-13.089395,-29.486099 -13.089395,-62.703653 0,-92.188591c13.088815,29.484938 13.088815,62.577743 0,92.188591zm-15.092928,-100.897835c-20.969491,26.747996 -52.75736,44.290072 -88.017902,48.768863c20.969491,-26.747996 52.75736,-44.414241 88.017902,-48.768863zm-0.132873,-16.795901c-35.261702,-4.478211 -66.915538,-22.020287 -87.885029,-48.768863c35.127089,4.478791 66.915538,22.145036 87.885029,48.768863zm-111.525897,-132.497709c3.205187,-2.612193 7.212252,-5.473884 10.95183,-7.961908c10.952411,-7.465232 22.705538,-13.93421 35.127089,-19.159756c4.540875,-1.866018 9.082911,-3.607286 13.623787,-5.100217c0,0 0,0 0.133453,0c0.801297,0.248918 1.736627,0.497837 2.537923,0.746175c0.801297,0.248918 1.736046,0.622006 2.537923,0.870924c0.667844,0.248338 1.468561,0.622006 2.136405,0.870924c0.667844,0.248918 1.335688,0.621426 2.003532,0.995093c0.134033,0 0.134033,0 0.266906,0.124169c1.202816,0.622586 2.404471,1.244012 3.473253,1.866598c1.201655,0.621426 2.270438,1.368761 3.33922,1.990187c2.136405,1.368761 4.139937,2.736942 6.010016,4.229872c13.489754,10.450512 22.973023,24.758389 25.243461,41.55313c1.869499,13.561702 -2.804829,26.375489 -4.541456,39.811861c-1.869499,14.058959 -1.335688,28.365676 1.469721,42.299885c-0.134033,-0.124169 -0.267486,-0.248918 -0.534391,-0.373088l0,0.124169c-2.271018,-1.866598 -4.541456,-3.732036 -6.811893,-5.473884c-2.404471,-1.741268 -4.674908,-3.358948 -7.212252,-4.976628c-0.93475,-0.622006 -2.003532,-1.244012 -2.938282,-1.866018c-0.801877,-0.497257 -1.736627,-1.119843 -2.537923,-1.61768c-2.003532,-1.244012 -4.140517,-2.363855 -6.144049,-3.483117c-0.93533,-0.497837 -1.870079,-0.995093 -2.804829,-1.49293c-6.410375,-3.234199 -13.088815,-5.972301 -19.900709,-8.211407c-9.482689,-3.11061 -18.565601,-6.593727 -26.713182,-11.446186c-1.602594,-0.995093 -3.205187,-1.990187 -4.807781,-3.109449c-0.801877,-0.622586 -1.736627,-1.244012 -2.537343,-1.866598c-3.33922,-2.612773 -6.544988,-5.598634 -9.48327,-9.081751c-11.486222,-14.058959 -15.894225,-32.471379 -11.88716,-50.262374zm-61.706819,85.843782c9.215784,-27.121664 24.976556,-51.879473 46.212952,-72.28266c-0.134033,3.11003 -0.134033,6.096471 0,9.081751c0,0.870344 0,1.61768 0.134033,2.488024c0,0.871505 0.132873,1.61768 0.132873,2.488604c0.134033,1.61768 0.266906,3.234779 0.534972,4.727709c0.132873,0.746755 0.266906,1.617099 0.266906,2.488024c0.132873,0.870924 0.266906,1.617099 0.400939,2.488604c0.266906,1.49235 0.533811,2.861692 0.800717,4.229292c0.400939,1.741849 0.801877,3.608447 1.202235,5.349715c0.400358,1.61768 0.801297,3.11061 1.335688,4.727709c0.534391,1.61768 0.93533,3.11061 1.469141,4.72829c0.667844,2.114356 1.469141,4.105703 2.271018,6.09589c0.801297,1.990767 1.736046,3.980954 2.671376,5.971141c-20.034742,3.11061 -39.401639,8.958162 -57.566882,17.417907c0.268066,0 0.134033,0 0.134033,0zm-5.074687,92.810597c-0.667844,-2.861692 -1.202816,-5.846972 -1.603754,-8.583914c-1.602594,-9.455419 -2.40331,-19.159175 -2.40331,-28.739343c0,-9.828506 0.800717,-19.532843 2.537343,-29.2366c0.533811,-2.98528 1.068783,-5.723383 1.869499,-8.459745l0,-0.124169c3.473253,-2.364435 7.212252,-4.479371 11.085863,-6.22122c2.404471,-1.119263 4.674908,-2.114356 7.079379,-2.98528c0.132873,0 0.266906,-0.12533 0.400939,-0.12533c5.074687,-1.865438 10.417439,-3.358368 15.893644,-4.229292c14.825442,-1.866018 29.91837,0.870924 42.873732,7.837739c10.150533,5.598634 18.030629,13.685291 27.113541,20.901604c0.133453,0.123589 0.266906,0.248338 0.534391,0.372507c1.201655,0.995093 2.537343,1.990767 3.873031,2.861692c0,0 0.134033,0.124169 0.266906,0.124169c2.938282,1.991347 6.010597,3.856785 9.082911,5.723383c2.40331,1.368181 4.807781,2.736942 7.212252,3.980954c7.345704,3.732036 15.092928,6.842646 22.973023,9.330669c0,0 0,0 -0.134033,0c0.134033,0 0.267486,0.124749 0.267486,0.124749c-17.229332,5.349715 -33.124137,13.685291 -47.014249,24.508891c-6.812474,5.224966 -12.82191,11.446186 -20.034742,16.173315c-7.880096,4.976628 -16.694941,8.460325 -26.178211,9.953255c-11.486222,1.866018 -24.575617,0.497257 -36.729683,-3.608447c-0.268066,-0.123589 -0.400939,-0.123589 -0.667844,-0.248918c0,0 0,0 -0.134033,0c0,0 0,0 -0.133453,0c-0.667844,-0.248338 -1.469141,-0.497257 -2.136985,-0.746175c-0.534391,-0.248918 -1.202235,-0.373088 -1.736627,-0.621426c-0.266906,0 -0.400358,-0.124749 -0.534391,-0.248918c-0.667844,-0.248918 -1.201655,-0.498417 -1.869499,-0.747335c0,0 -0.134033,0 -0.134033,-0.124169c-0.667844,-0.373668 -1.468561,-0.622006 -2.136405,-0.995093c-1.603754,-0.746175 -3.072315,-1.61768 -4.674908,-2.488024c-1.602594,-0.871505 -3.205187,-1.866598 -4.807781,-2.985861c0.132873,-0.249499 0,-0.373668 0,-0.373668zm62.640408,34.711065c-8.280454,17.417327 -12.154646,36.452333 -11.352769,55.611509l0,0.124749c-10.017081,-9.579588 -18.832506,-20.155429 -26.178211,-31.476286c-1.335688,-1.866018 -2.537343,-3.732036 -3.606126,-5.722803c-0.667844,-0.995093 -1.201655,-1.866598 -1.736627,-2.861692c-0.533811,-0.995093 -1.201655,-1.990187 -1.736046,-2.861692c-0.667844,-1.244012 -1.335688,-2.363274 -2.003532,-3.607286c-0.667844,-1.244012 -1.335688,-2.488604 -1.870079,-3.732616c-0.667844,-1.244012 -1.202235,-2.488604 -1.870079,-3.732616c-0.667844,-1.61768 -1.468561,-3.11003 -2.136405,-4.60296c-1.469721,-3.234779 -2.671376,-6.468978 -3.874192,-9.703757c-0.533811,-1.61768 -1.201655,-3.235359 -1.735466,-4.851878c1.201655,0.497257 2.270438,1.119263 3.472093,1.616519c1.201655,0.497837 2.270438,0.995674 3.472673,1.49293c5.342753,2.240266 10.685505,4.230453 16.16113,6.096471c1.736627,0.622006 3.473253,1.119843 5.20872,1.61768c1.202816,0.372507 2.404471,0.746175 3.606706,1.119843c1.870079,0.497837 3.606126,0.995093 5.476205,1.49293c1.870079,0.497257 3.739579,0.870344 5.609078,1.368181c1.87066,0.373668 3.606126,0.870924 5.476786,1.119843c1.869499,0.372507 3.739579,0.746175 5.743111,1.119263c1.469141,0 2.671376,0.248918 3.873031,0.373668zm62.909054,100.897835c-0.134033,0 -0.267486,-0.12533 -0.400939,-0.12533l-0.133453,0c-4.140517,-1.49235 -8.414487,-3.11003 -12.555584,-4.851878c-12.153485,-5.100797 -23.639707,-11.321436 -34.458665,-18.661339c-0.667844,-0.497837 -1.469721,-0.995093 -2.137565,-1.49293c-0.266906,-0.124749 -0.533811,-0.373668 -0.667844,-0.497837c-0.93475,-0.622006 -1.869499,-1.368761 -2.804249,-1.990187c-0.534972,-0.373668 -1.068783,-0.746755 -1.736627,-1.244012c-1.335688,-0.871505 -2.671376,-1.866598 -3.873031,-2.861692c0,0 0,0 0,-0.124749c0,0 0,0 -0.134033,0c-0.800717,-2.985861 -1.335688,-6.096471 -1.468561,-9.20592c0,-0.995093 0,-1.866598 0,-2.861692c0,-1.368761 0,-2.736942 0.132873,-4.105703c0,-0.995674 0.134033,-1.990767 0.266906,-2.985861c0.134033,-0.995093 0.268066,-1.990767 0.400939,-2.985861c0,-0.497257 0.134033,-0.995093 0.266906,-1.49293c0.134033,-0.622006 0.268066,-1.368761 0.400939,-2.114936c0.134033,-0.373088 0.134033,-0.746755 0.266906,-1.244012c0.268066,-0.995093 0.534972,-1.866598 0.801877,-2.861692c4.408003,-14.680385 14.424503,-27.868419 28.448648,-36.576502c12.020613,-7.340482 26.445697,-9.953255 39.401639,-15.551889c12.82191,-5.722223 24.575617,-13.062705 35.127089,-21.771949l0,0.124169c-0.667844,3.981534 -1.335688,8.087238 -1.736627,12.068192c-1.335688,14.555635 -0.266906,29.112431 3.072315,43.419148c0.93475,4.72829 1.736046,9.455419 1.870079,14.183128c0.133453,2.861692 0.266906,5.846972 0,8.708663c0,0.995674 -0.134033,1.990767 -0.266906,2.985861c-0.134033,0.871505 -0.267486,1.741849 -0.267486,2.612773c0,0.124169 0,0.248918 0,0.248918c-1.068783,7.091564 -3.33922,14.058379 -7.212252,20.776855c-8.54794,14.929303 -23.239929,25.752903 -40.603294,30.481192zm112.059708,6.717316c-30.052403,6.34713 -61.3053,6.097631 -91.357703,-0.746175c-0.133453,0 -0.267486,0 -0.400358,-0.124169c0,0 0,0 0.132873,0c13.624367,-7.962488 26.045338,-17.417907 36.997169,-28.241507c1.87066,-1.741849 3.606126,-3.608447 5.342753,-5.473884c1.736627,-1.866598 3.472673,-3.732616 5.2093,-5.723383c1.469141,1.990767 2.938282,3.981534 4.540875,5.972301c1.202816,1.49293 2.404471,2.861111 3.740159,4.353461c0.533811,0.622586 0.93475,1.120423 1.468561,1.61768c0.534972,0.622586 1.068783,1.244012 1.602594,1.741849c0.534972,0.622586 1.068783,1.119843 1.603754,1.741849c1.067622,1.119843 2.270438,2.363855 3.472093,3.483697c1.201655,1.119263 2.270438,2.239686 3.472673,3.358948c7.346285,6.718476 15.493286,12.689617 24.175259,18.039333c0.133453,0 0.133453,0 0.133453,0l-0.133453,0zm88.151935,-43.916985c-0.134033,0.497257 -0.134033,0.995674 -0.134033,1.493511c-0.132873,0.124169 -0.266906,0.248918 -0.400358,0.372507c-2.40389,1.990767 -4.674328,3.857365 -7.212832,5.598634c-14.557956,10.948349 -30.585633,19.905351 -47.815546,26.624407c-3.071154,1.244012 -6.277502,2.363855 -9.482689,3.358948c-0.133453,0 -0.267486,0.124169 -0.400939,0.124169c-0.133453,0 -0.400358,0 -0.534391,-0.248918c-29.91837,-11.197267 -50.220017,-39.065106 -46.880796,-69.421549c1.202235,-10.948349 4.808361,-21.274112 5.610238,-32.222461c0.800717,-11.445025 0,-23.01596 -2.271018,-34.213228c0.133453,0.124749 0.267486,0.248918 0.534391,0.373668c0,-0.124749 0,-0.248918 -0.133453,-0.497257c11.218736,9.455419 24.041226,17.168408 37.797885,23.01538c13.357461,5.723963 28.449809,7.838319 41.004233,15.551889c21.504463,13.311623 31.921902,36.701252 30.319308,60.090299zm15.492706,-12.937956c-0.266906,0.123589 -0.399778,0.372507 -0.533811,0.497257c0,-0.124749 0,-0.248918 0,-0.497257c-0.266906,-17.667406 -4.540875,-34.959983 -12.154066,-51.133878c2.404471,-0.248918 4.674908,-0.497837 7.079379,-0.870344c2.136405,-0.248918 4.27397,-0.622586 6.276342,-0.995674c0.93591,-0.124749 1.87066,-0.373088 2.805409,-0.497257c0.801297,-0.124749 1.468561,-0.248918 2.270438,-0.497837c1.471462,-0.373668 3.072895,-0.622006 4.540875,-1.119843c0.934169,-0.248918 2.001792,-0.497837 2.935961,-0.746175c0.939972,-0.248918 2.007594,-0.497837 2.941763,-0.870924c0.934169,-0.249499 2.001792,-0.622006 2.935961,-0.870924c1.34033,-0.497837 2.80831,-0.871505 4.142838,-1.368761c0.266906,0 0.400358,-0.124169 0.667264,-0.248918c1.46798,-0.497837 2.802508,-0.995093 4.276291,-1.617099c1.601433,-0.622006 3.202866,-1.244012 4.8043,-1.990187c0.934169,-0.373668 1.740688,-0.746755 2.674858,-1.120423c1.734886,-0.746175 3.603225,-1.61768 5.204658,-2.488024l0.133453,-0.124749c-8.546779,24.882558 -22.570924,47.400682 -41.001912,66.561018zm48.086513,-94.926694l0,0.622586c-0.406161,2.736942 -0.939972,5.473884 -1.607235,8.210827c0,0 -0.133453,0 -0.133453,0.124749c-5.477366,3.732036 -11.48274,6.842646 -17.760823,9.081751c-24.710811,8.958162 -53.560398,2.363855 -72.393484,-14.680385c-0.667844,-0.622586 -1.468561,-1.368761 -2.270438,-1.990767c-0.667844,-0.622006 -1.469721,-1.244012 -2.270438,-1.866018c-0.93475,-0.870924 -2.003532,-1.617099 -2.938282,-2.363274c-0.667844,-0.622586 -1.469721,-1.120423 -2.137565,-1.61768c-2.670796,-1.990767 -5.20872,-3.857365 -8.013549,-5.598634c-1.068783,-0.746755 -2.270438,-1.49293 -3.33922,-2.239686c-1.736627,-1.119843 -3.33922,-1.990187 -5.074687,-2.98528c-9.082911,-5.101377 -18.833087,-9.330669 -28.98362,-12.566029l0.133453,0c0,0 -0.133453,0 -0.133453,-0.124169c12.687877,-3.980954 24.70965,-9.579588 35.794933,-16.795901c10.95183,-7.091564 19.633803,-16.670571 30.986572,-23.389628c14.157598,-8.334996 30.853119,-11.445025 46.882537,-9.20592c0.667264,0.124169 1.46798,0.248918 2.268697,0.373088c0.667264,0.124749 1.334528,0.248918 2.001792,0.373668c0.667264,0.124169 1.34033,0.248918 2.007594,0.497257c0.800717,0.248918 1.734886,0.373088 2.535603,0.622006c0.667264,0.248918 1.46798,0.373668 2.135244,0.622586c1.734886,0.497257 3.609027,1.119843 5.343913,1.866018c1.334528,0.497837 2.535603,0.995674 3.875933,1.617099c0.667264,0.248918 1.334528,0.622586 1.868339,0.870924c1.601433,0.870924 3.202866,1.741849 4.810102,2.612193c1.601433,0.996254 3.069414,1.991347 4.537394,2.986441c0,0 0,0 0,0.124169c0.400358,1.49293 0.667264,3.11061 0.934169,4.60354c0.266906,1.49293 0.533811,2.98528 0.800717,4.60296c1.473783,9.20708 2.274499,18.53775 2.274499,27.868419c0.133453,9.081751 -0.667264,18.41242 -2.135244,27.74309z"/>
   <path stroke="null" id="svg_20" fill="#D0B33E" d="m321.861482,61.316318c-0.399198,-0.623166 -0.931268,-1.371082 -1.329886,-1.995409c-1.329886,-1.994249 -2.925517,-3.740739 -4.65344,-5.486649c-0.930688,-0.872665 -1.729084,-1.620581 -2.792644,-2.368496c-0.930688,-0.747916 -1.861376,-1.495831 -2.924937,-2.120158c-1.063561,-0.747916 -2.127121,-1.371082 -3.190682,-1.994249c-2.260574,-1.247493 -4.520567,-2.244908 -7.046886,-2.992823c-0.797815,-0.249499 -1.596211,-0.499578 -2.393446,-0.747916c-0.664363,-0.250079 -1.462758,-0.374828 -2.127121,-0.499578c-0.664363,-0.124749 -1.329886,-0.249499 -1.994249,-0.373668c-1.329886,-0.249499 -2.792644,-0.374248 -4.12253,-0.374248c-0.398037,0 -0.930108,0 -1.328725,0l-0.53207,0c-2.127121,0 -4.12137,0.124749 -6.248491,0.498417c-1.596211,0.249499 -3.05897,0.623747 -4.65402,1.122164c-0.53207,0.12533 -1.063561,0.250079 -1.595631,0.499578c-1.329886,0.498417 -2.659772,0.997414 -3.988497,1.620581c-1.595631,0.747916 -3.058389,1.74591 -4.520567,2.618575c-1.462758,0.997414 -2.792644,1.995409 -3.989077,3.117573c-2.393446,2.119578 -4.387695,4.489235 -6.115618,7.10723c-5.18551,7.855726 -7.046886,17.332613 -4.919765,26.80892c1.596211,6.983061 5.18493,12.968128 10.238148,17.706281c1.727923,1.621161 3.456427,2.992243 5.450675,4.239736c2.526319,1.620581 5.18551,2.992823 7.977574,3.990238c0.930688,0.373668 1.861376,0.623166 2.924937,0.872665l1.595631,0.373668c0.930688,0.249499 1.994249,0.374248 2.924937,0.498997c1.063561,0.124749 1.994829,0.248918 3.058389,0.373668c1.595051,0.124749 3.324134,0.124749 4.919185,0c0.664943,0 1.329886,0 1.861956,-0.123589c1.328725,-0.124749 2.658611,-0.374828 3.988497,-0.624327c1.595631,-0.249499 3.057809,-0.623166 4.520567,-1.122164c1.861956,-0.623166 3.855624,-1.371662 5.584128,-2.244327c0.664943,-0.374248 1.329306,-0.747916 1.994249,-1.122164c1.329306,-0.747916 2.659191,-1.621161 3.855624,-2.493826c7.844702,-5.985647 13.163085,-14.963537 13.9609,-24.814091c0.797815,-7.356729 -0.931268,-14.089711 -4.387115,-19.950608zm-33.373056,37.53272c-12.365269,-0.249499 -22.336512,-9.601636 -22.602837,-21.198102c0,-11.721215 10.104695,-21.198102 22.602837,-21.198102c12.498142,0 22.602837,9.476887 22.602837,21.198102c-0.132873,11.596465 -10.237568,21.198102 -22.602837,21.198102z"/>
   <path stroke="null" id="svg_21" fill="#D0B33E" d="m156.475789,46.90574c-18.277227,-9.440333 -41.358753,-3.726233 -52.032654,13.042397c-10.139509,17.016388 -4.001842,38.505765 13.875606,48.442194c5.737309,3.105388 12.274753,4.720166 18.945651,4.720166c3.335159,0 6.670898,-0.373088 10.006056,-1.242851c9.739731,-2.359213 18.144354,-8.32165 23.214399,-16.519712c0.800717,-1.241691 1.46798,-2.608131 2.001792,-3.850402c0.132873,-0.124169 0.132873,-0.371927 0.265745,-0.496676c6.937803,-16.147205 0.267486,-35.02729 -16.276596,-44.095115zm-13.207762,51.175074c-12.141301,2.981219 -24.548927,-3.726233 -27.751213,-14.905514c-3.201706,-11.302869 4.003003,-22.854657 16.010851,-25.835295c5.736728,-1.36644 11.873815,-0.621426 17.076732,2.111455c5.203497,2.732881 9.072467,7.328298 10.540448,12.792898c3.335159,11.17986 -3.86955,22.731648 -15.876818,25.836456z"/>
   <path stroke="null" id="svg_22" fill="#D0B33E" d="m95.341656,181.389575c-10.676221,-16.871331 -34.028715,-22.453138 -52.177711,-12.405305c-18.148996,9.924244 -24.020338,31.633528 -13.344116,48.504859c3.469772,5.334049 8.406364,9.800655 14.144833,12.777232c1.201075,0.620265 2.40215,1.116361 3.736677,1.737207c1.46798,0.619685 3.068833,1.115781 4.670847,1.487708c3.201706,0.745015 6.671478,1.241111 10.008377,1.241111c7.205869,0 13.877927,-1.860796 19.482943,-5.085711c0.800717,-0.496676 1.600853,-0.992773 2.40157,-1.488869c0.400358,-0.248338 0.800717,-0.496096 1.201075,-0.868023c0.399778,-0.248918 0.800717,-0.620845 1.201075,-0.869184c0.400939,-0.371927 0.800717,-0.619685 1.200495,-0.991612c0.801297,-0.620845 1.46798,-1.241111 2.135824,-1.984965c2.40215,-2.481061 4.536814,-5.21104 6.2717,-8.187617c0.266906,-0.496096 0.533811,-0.868023 0.667264,-1.36528c0.400939,-0.868023 0.800717,-1.736627 1.201075,-2.60465l0,-0.124169c0.400358,-0.868023 0.667844,-1.860796 0.933589,-2.852988c0.801297,-2.977737 1.335108,-6.078483 1.335108,-9.304559c-0.133453,-6.202653 -1.868339,-12.280556 -5.070625,-17.615185zm-21.751641,35.975385c-5.204658,2.852988 -11.343485,3.598003 -17.214827,2.109134c-19.083165,-4.713784 -22.552937,-29.400805 -5.470983,-38.580615c3.469192,-1.860796 7.339322,-2.728819 11.342325,-2.728819c2.001792,0 4.003583,0.248338 5.871922,0.743854c18.949713,4.590195 22.552357,29.276636 5.471563,38.456446z"/>
   <path stroke="null" id="svg_23" fill="#D0B33E" d="m174.500616,311.455542c1.485968,4.081914 2.026161,8.658764 1.485968,13.235033c-0.540774,5.070625 -2.297128,9.771063 -4.863483,13.852977c0.405,-0.618525 0.810581,-1.11288 1.080967,-1.731405c0.270387,-0.495516 0.540774,-0.989871 0.81,-1.484807c0,-0.123589 0.135774,-0.247178 0.270387,-0.494936c0.270387,-0.494355 0.405,-0.989291 0.675387,-1.483647c0.135193,-0.124169 0.135193,-0.371347 0.270387,-0.495516c0.270387,-0.618525 0.540194,-1.237049 0.675967,-1.854993c0.269226,-0.618525 0.405,-1.360638 0.539613,-2.102751c0.135774,-0.494355 0.270387,-0.988711 0.270387,-1.484227c0.270387,-0.865702 0.405,-1.854993 0.540774,-2.844865c0.269807,-4.576269 -0.270387,-8.905361 -1.756354,-13.110864zm-7.970612,33.024918c0.270387,-0.247758 0.540774,-0.618525 0.810581,-0.866283c0.811161,-0.865702 1.486548,-1.731405 2.161355,-2.597107c0.270387,-0.247178 0.540774,-0.618525 0.675387,-0.989871c0.135774,-0.247178 0.270387,-0.370767 0.405,-0.617944c-1.485968,2.22634 -3.241742,4.329092 -5.267903,6.184085c0.40558,-0.371347 0.810581,-0.742113 1.215581,-1.11288zm-2.566355,2.349929c0.539613,-0.371347 0.945194,-0.865702 1.350774,-1.237049c-0.675387,0.618525 -1.486548,1.361218 -2.296548,1.979163c0.405,-0.247758 0.675387,-0.494936 0.945774,-0.742113zm-1.485968,1.237049c0.269807,-0.247178 0.540194,-0.371347 0.674807,-0.618525c-0.81,0.618525 -1.485968,1.236469 -2.430581,1.731405c0.539613,-0.370767 1.215,-0.742113 1.755774,-1.11288zm-6.079644,-56.896137c1.621741,0.865702 3.242902,1.854993 4.72887,2.844865c-1.485968,-0.989871 -3.107129,-1.979163 -4.72887,-2.844865zm-0.675387,60.97805c0.406161,-0.124169 0.675387,-0.371347 0.945774,-0.495516c-0.675387,0.371347 -1.215581,0.618525 -1.890968,0.989871c0.405,-0.124169 0.675387,-0.247178 0.945194,-0.494355zm-2.431161,1.1123c-1.621161,0.618525 -3.242902,1.11404 -4.863483,1.608396c1.620581,-0.371347 3.242322,-0.865702 4.863483,-1.608396zm-9.186192,2.598267c-1.486548,0.247178 -2.972515,0.370186 -4.457903,0.494355c1.485387,-0.124169 2.971355,-0.247178 4.457903,-0.494355z"/>
   <path stroke="null" id="svg_24" fill="#D0B33E" d="m307.623812,290.400177c0,0 -0.132873,-0.123589 -0.265745,-0.123589c-18.250536,-9.675326 -41.430121,-3.84518 -51.82029,13.147418c-1.332207,2.109134 -2.397508,4.341857 -3.197064,6.698749c-0.266906,0.868023 -0.666103,1.860216 -0.798976,2.729399c-0.133453,0.495516 -0.266906,0.868023 -0.266906,1.363539c-0.266325,1.488869 -0.532651,2.977157 -0.666103,4.466026c-0.133453,2.232143 -0.133453,4.589034 0.266906,6.821757c1.465079,10.543929 8.125533,20.467013 18.782607,26.172989c18.117083,9.674745 41.163216,3.8446 51.686837,-12.900241c1.332207,-2.108554 2.264635,-4.217688 3.063611,-6.45041c0.133453,-0.496096 0.266906,-0.868023 0.533231,-1.364119c0.266325,-0.868023 0.533231,-1.860796 0.666103,-2.728819c3.329937,-14.512698 -3.46397,-29.89342 -17.984211,-37.832699zm0.400358,41.057614c0,0.123589 0,0.123589 0,0c-6.261836,10.171422 -20.115974,13.520506 -30.90534,7.81453c-7.327137,-3.96993 -11.323757,-11.039445 -11.323757,-18.358459c0,-3.596842 0.932429,-7.193684 3.063611,-10.418599c6.261256,-10.047833 20.115974,-13.521086 30.9065,-7.81511c10.789366,5.830145 14.519081,18.730386 8.258986,28.777639z"/>
   <path stroke="null" id="svg_25" fill="#D0B33E" d="m402.270835,197.344143c0,-0.748496 -0.133453,-1.497572 -0.266906,-2.246068c-0.533811,-4.741635 -2.146849,-9.233771 -4.821706,-13.351659l0,0.124749c-10.589187,-17.095299 -33.905706,-22.960258 -52.264745,-13.102741c-0.669585,0.374828 -1.33975,0.749076 -2.009915,1.123324c-0.536132,0.249499 -0.937651,0.624327 -1.474363,0.873826c-0.401519,0.249499 -0.669585,0.498997 -1.071684,0.748496c-0.134033,0 -0.268066,0.12533 -0.268066,0.250079c0,0 -0.134033,0 -0.134033,0.124749c-0.401519,0.249499 -0.804198,0.623747 -1.205717,0.873245c-0.536132,0.374828 -0.938231,0.748496 -1.34033,1.122744c-0.536132,0.498997 -0.938231,0.873245 -1.473783,1.372823c-0.536712,0.498997 -1.072264,0.997995 -1.474943,1.622321c-0.535552,0.498997 -0.937071,0.998575 -1.33975,1.621741c-0.401519,0.498997 -0.803618,1.123324 -1.206297,1.622321c-0.401519,0.498997 -0.669585,1.123324 -1.071104,1.622321c-0.268646,0.249499 -0.402679,0.498997 -0.536132,0.873826c0,0 -0.134033,0.124749 -0.134033,0.249499c-0.134033,0.249499 -0.268066,0.498417 -0.535552,0.872665c-0.269226,0.624327 -0.670745,1.248073 -0.938231,1.8724c-0.134033,0.249499 -0.268066,0.623747 -0.402679,0.873245c0,0.124749 0,0.124749 -0.134033,0.249499c-0.268066,0.374828 -0.401519,0.749076 -0.535552,1.123324c-0.268066,0.498417 -0.402099,0.997414 -0.536712,1.621741c0,0.124749 -0.134033,0.249499 -0.134033,0.374248c-0.133453,0.499578 -0.267486,0.998575 -0.401519,1.497572c-0.134033,0.374828 -0.134033,0.624327 -0.268066,0.998575l0,0.124749c0,0 0,0 0,0.124749c0,0.124749 0,0.124749 0,0.249499c0,0 0,0.124749 0,0.250079c0,0.123589 0,0.248338 -0.133453,0.373088c-0.134033,0.624327 -0.268646,1.372823 -0.268646,1.99715c-0.402099,2.994564 -0.402099,5.989708 0,8.984272c0.670165,4.491556 2.143948,8.983692 4.824027,13.22691c5.092674,8.235776 13.400398,14.225485 23.183066,16.595722c3.216212,0.873826 6.700489,1.248073 10.050734,1.248073c17.824648,-0.124749 32.829381,-11.480419 36.983823,-26.828648c0.133453,-0.623166 0.266906,-1.122164 0.400358,-1.746491c0.139255,-0.623747 0.272708,-1.122744 0.272708,-1.747071c0.133453,-0.623747 0.133453,-1.123324 0.266906,-1.747071l0,-0.124749c0.133453,-0.498417 0.133453,-1.122744 0.133453,-1.621741c0.400358,-1.622321 0.400358,-2.995144 0.266906,-4.367387zm-26.800797,20.71419c-10.853772,5.863799 -24.789722,2.370237 -31.088112,-7.736779c-6.298971,-10.107597 -2.546047,-23.084427 8.307725,-28.949386c3.484278,-1.8724 7.370074,-2.745646 11.391064,-2.745646c8.174852,0 15.677219,3.993719 19.698209,10.606594c2.013396,3.119894 2.947565,6.738204 2.947565,10.481844c0,7.362531 -4.287895,14.474403 -11.256451,18.343373z"/>
   <path stroke="null" id="svg_26" fill="#D0B33E" d="m344.804333,338.447235c0.134033,-0.124169 0.266906,-0.248918 0.400939,-0.373668c-0.134033,0.124749 -0.266906,0.249499 -0.400939,0.373668zm-87.562422,41.846726l-0.132873,0c-30.079093,6.226442 -61.227549,5.976943 -91.172609,-0.747335c-0.132873,0 -0.266906,0 -0.400939,-0.124749c0,0 0,0 -0.132873,0c0.132873,0 0.266906,0 0.400939,0.124749c30.077933,6.973777 61.360422,7.223276 91.438354,0.747335c0.134033,0.124749 0,0.124749 0,0c0.134033,0.124749 0.134033,0.124749 0,0zm-37.163114,-364.163009c4.410904,0.124749 8.956421,0.498417 13.367906,0.872085c-4.411484,-0.498417 -8.822969,-0.747335 -13.367906,-0.872085zm-39.971425,2.490345c0.266906,0 0.668424,-0.123589 0.93533,-0.123589c1.203976,-0.250079 2.406211,-0.373668 3.610187,-0.498417c-1.470882,0.124749 -3.075216,0.373088 -4.545517,0.622006zm-35.55994,354.947805c-4.544937,-1.495251 -8.42203,-3.114091 -12.565448,-4.857681c-12.16509,-5.106019 -23.662336,-11.333621 -34.489997,-18.681647c-0.669005,-0.498417 -1.470882,-0.995674 -2.139306,-1.494091c0.668424,0.498417 1.470301,0.995674 2.139306,1.494091c10.827661,7.348025 22.324907,13.575628 34.489997,18.681647c4.277451,1.867759 8.42203,3.487179 12.565448,4.857681c0,0.123589 0.134033,0 0.134033,0c0,0 0,0 -0.134033,0zm-58.285206,-31.758857c0,0.124169 0.134033,0.124169 0,0c1.337429,1.121003 2.539664,2.117257 3.876513,2.989342c-1.202816,-0.872085 -2.539084,-1.868339 -3.876513,-2.989342zm-41.708631,-44.835488c7.352087,11.333041 16.175056,21.919907 26.20142,31.508778l0,-0.123589c-9.892331,-9.590032 -18.7153,-20.052149 -26.20142,-31.38519zm-20.052729,-151.942357l0.134033,0c9.090454,-27.150095 24.864571,-51.809845 46.120116,-72.234501c-21.255544,20.300487 -37.029661,45.084406 -46.254149,72.234501zm155.606506,-126.411102c-0.669005,0.124749 -1.336849,0.249499 -2.005273,0.373668c-0.266906,0 -0.400939,0.00116 -0.669005,0.124749c-1.603174,0.249499 -3.341541,0.623166 -4.945876,0.872085c-2.005273,0.373668 -4.010546,0.747335 -5.881786,1.245753l13.501939,-2.616254z"/>
   <path stroke="null" id="svg_27" fill="url(#svg_16)" d="m406.616753,162.994561c-1.46798,-0.995093 -2.935961,-1.989607 -4.537394,-2.98412c1.46798,0.994513 2.935961,1.989026 4.537394,2.98412c0,0.124169 -0.133453,0 0,0c0,0 0,0.124169 0,0zm-9.614401,18.151317c-10.548571,-16.907885 -33.778636,-22.751376 -52.069788,-12.930413c-0.667844,0.373088 -1.335688,0.746755 -2.003532,1.119263c-0.533811,0.248918 -0.934169,0.621426 -1.46798,0.870344c-0.400939,0.248338 -0.667844,0.497257 -1.068783,0.745595c-0.132873,0 -0.266906,0.124169 -0.266906,0.248918c0,0 -0.132873,0 -0.132873,0.124169c-0.400939,0.248918 -0.801877,0.621426 -1.202235,0.870344c-0.533811,0.373088 -0.93475,0.745595 -1.335688,1.119263c-0.533811,0.496676 -0.933589,0.869764 -1.4674,1.367021c-0.534972,0.497837 -1.068783,0.994513 -1.469141,1.616519c-0.534972,0.497257 -0.93475,0.993933 -1.335688,1.615939c-0.399778,0.497257 -0.800717,1.119263 -1.201655,1.616519c-0.399778,0.497257 -0.667264,1.118682 -1.068202,1.616519c-0.266906,0.247758 -0.400358,0.496676 -0.533811,0.869184c0,0 -0.133453,0.124749 -0.133453,0.248918c-0.133453,0.248918 -0.267486,0.497837 -0.534391,0.870344c-0.132873,0.248918 -0.266906,0.622006 -0.533811,0.870344c3.204607,-6.340167 8.545619,-11.934739 15.487484,-15.664454c18.292313,-9.821543 41.522378,-3.978633 52.070949,13.053421c2.535603,4.103382 4.142838,8.454523 4.810102,13.054002c-0.400358,-4.599479 -2.007594,-9.199537 -4.543196,-13.301759zm-68.359149,4.47531c0.266906,-0.497837 0.533811,-0.994513 0.667844,-1.49235c-0.134033,0.248918 -0.266906,0.497837 -0.400939,0.746755c-0.132873,0.247758 -0.134033,0.496676 -0.266906,0.745595zm-66.758876,14.296853c-0.132873,0 -0.132873,0 -0.266906,0c10.147632,3.232458 19.760873,7.46001 28.973756,12.556745c-9.07943,-5.096735 -18.693251,-9.324287 -28.706851,-12.556745z"/>
   <path stroke="null" id="svg_28" fill="url(#svg_15)" d="m38.766967,247.349475c0,0 -0.134033,0 0,0c-0.266906,0 -0.266906,-0.12533 -0.400939,-0.12533c0.266906,0.12533 0.667844,0.12533 0.93475,0.248918c-0.266906,0 -0.399778,0 -0.533811,-0.123589zm129.156168,-47.152344c-17.230493,5.349715 -33.124137,13.685291 -47.014829,24.508891c-6.811313,5.349715 -12.82249,11.446186 -20.034742,16.173315c-7.879516,4.977208 -16.695521,8.460325 -26.178211,9.953255c-4.807781,0.746175 -9.883048,0.995093 -15.092928,0.746175c-0.667844,0 -1.468561,-0.123589 -2.270438,-0.123589c-1.201655,-0.12533 -2.40331,-0.250079 -3.606126,-0.373668c-0.667844,-0.124749 -1.201655,-0.124749 -1.735466,-0.248918c-0.400939,-0.124749 -0.93591,-0.124749 -1.336268,-0.248918c-1.068202,-0.248918 -2.270438,-0.373668 -3.33922,-0.622586c-0.667844,-0.123589 -1.335688,-0.248918 -2.003532,-0.497257c-1.201655,-0.248918 -2.537343,-0.622006 -3.873031,-0.995093c0,0 0,0 -0.134033,0c11.219896,3.358948 22.973023,4.354042 33.525076,2.612773c9.348656,-1.49293 18.298115,-4.852459 26.178211,-9.953255c7.212252,-4.727129 13.222848,-10.948349 20.034742,-16.173315c13.890692,-10.8236 29.91837,-19.159175 47.014829,-24.508891c0.132873,-0.124749 0,-0.248918 -0.134033,-0.248918zm-128.488324,47.400682c0.667844,0.248918 1.468561,0.497837 2.136405,0.622006c0,0 0,0 0.134033,0c-0.93475,-0.124169 -1.602594,-0.373088 -2.270438,-0.622006c-0.134033,0 -0.134033,0 0,0zm-4.139937,-1.368761c0.666684,0.248918 1.334528,0.622586 2.136405,0.746755c0,0 0,0 0.134033,0c0,0 0,0 0.132873,0c0.266906,0.124749 0.400939,0.124749 0.667844,0.248338c-0.533811,-0.123589 -0.93475,-0.248338 -1.335688,-0.497257c-0.533811,-0.124169 -1.068783,-0.373088 -1.735466,-0.497837zm-4.27397,-1.741849c0,0 0.132873,0.00058 0.132873,0.12533c0.667844,0.248338 1.201655,0.497257 1.869499,0.746175c0.268066,0.124169 0.400939,0.124169 0.534972,0.248918c-0.801877,-0.373668 -1.602594,-0.622586 -2.404471,-0.995093c0,-0.124749 0,-0.12533 -0.132873,-0.12533zm65.846756,-87.585051c-12.956523,-6.967395 -28.04887,-9.704337 -42.874893,-7.837739c-5.475625,0.870344 -10.817797,2.363274 -15.893644,4.229872c5.075847,-1.866598 10.418019,-3.234779 15.893644,-4.105703c14.826022,-1.866018 29.91837,0.870924 42.874893,7.837739c0.667844,0.373668 1.468561,0.870924 2.136405,1.244012c0.400939,0.248918 0.667844,0.497837 1.068783,0.622586c1.068783,0.622006 2.136405,1.368761 3.072315,1.990187c1.334528,0.871505 2.670216,1.866598 4.005904,2.861692c0.667844,0.497837 1.335688,0.995093 1.87066,1.617099c1.335688,0.995093 2.537343,1.991347 3.873031,3.11061c1.602594,1.368761 3.071735,2.612773 4.674908,3.980954c1.068202,0.995093 2.271018,1.866018 3.33864,2.737522c0.93591,0.870344 2.003532,1.616519 3.072315,2.488024c-9.082331,-7.091564 -16.962427,-15.178221 -27.11296,-20.776855zm2.003532,51.630555c-0.268066,0.995093 -0.534972,1.990767 -0.93591,2.861692c0.268066,-0.870924 0.667844,-1.866598 0.93591,-2.861692zm-36.864296,26.375489c-3.33922,0 -6.678441,-0.373668 -10.0165,-1.244012c-1.603754,-0.373668 -3.206348,-0.871505 -4.675489,-1.49293c1.469141,0.621426 3.071735,1.119263 4.675489,1.49293c3.33806,0.995093 6.67728,1.367601 10.0165,1.244012c0.801877,0.123589 1.602594,0 2.404471,0c0.533811,0 1.068202,-0.124749 1.602594,-0.124749c0.533811,0 1.201655,-0.124169 1.736627,-0.248918c0.667264,-0.124169 1.469141,-0.248918 2.136985,-0.373088c0.801297,-0.124749 1.602594,-0.373668 2.40389,-0.497257l0.133453,0c0.534391,-0.124749 0.93475,-0.248918 1.469721,-0.373668l0.132873,0c0,0 0,0 0.134033,0c0.133453,0 0.400939,-0.124169 0.533811,-0.124169c0.267486,0 0.400939,-0.124749 0.534972,-0.248918c0.132873,0 0.266906,-0.124749 0.266906,-0.124749c0.533811,-0.248918 1.068783,-0.372507 1.602594,-0.621426c0.801877,-0.248918 1.469721,-0.622586 2.270438,-0.995674c-5.20872,2.363855 -11.085863,3.732616 -17.363365,3.732616z"/>
   <path stroke="null" id="svg_29" fill="url(#svg_14)" d="m188.892626,120.32507c1.736046,-13.436373 6.410955,-26.250159 4.540875,-39.811861c-2.270438,-16.91949 -11.753127,-31.227367 -25.243461,-41.55313c13.356301,10.450512 22.83899,24.758389 24.976556,41.429541c1.736046,13.685291 -2.938282,26.374909 -4.674908,39.686532c-1.869499,14.058379 -1.335688,28.240926 1.469141,42.175136c0.133453,0.124749 0.267486,0.249499 0.534391,0.373668c-3.072315,-13.93421 -3.473253,-28.240926 -1.602594,-42.299885zm-18.298695,-25.130897c0.801877,-1.119263 1.469721,-2.488024 2.003532,-3.732616c-0.533811,1.244592 -1.201655,2.488604 -2.003532,3.732616zm-15.359833,-64.444921c-0.132873,0 -0.132873,-0.124749 -0.266906,-0.124749c1.201655,0.622586 2.537343,1.368761 3.740159,1.990767c-1.068783,-0.622006 -2.270438,-1.244012 -3.473253,-1.866018zm-14.157018,104.256203c-9.349817,-3.11003 -18.165242,-6.468978 -26.179371,-11.196687c8.148162,4.851878 17.230493,8.334996 26.713182,11.445606c6.945346,2.364435 13.490334,5.100797 19.900709,8.211407c-6.67728,-3.235359 -13.356301,-6.09589 -20.43452,-8.460325z"/>
   <path stroke="null" id="svg_30" fill="url(#svg_13)" d="m276.642462,43.688368c1.469721,-0.497837 3.072315,-0.746755 4.674908,-1.120423c-1.602594,0.373668 -3.205187,0.622586 -4.674908,1.120423zm-5.742531,65.813102c0,0.124749 0,0.124749 0,0c0.132873,0.124749 0.266906,0.124749 0.266906,0.124749c0,0 -0.134033,0 -0.266906,-0.124749c0,0.124749 0,0.124749 0,0zm-19.500931,-24.011054c-2.136405,-9.455419 -0.266906,-18.910257 4.808361,-26.749157c-5.075267,7.838899 -7.078799,17.418487 -4.808361,26.749157c0.134033,0.746175 0.266906,1.49293 0.533811,2.239105c0.134033,0.497837 0.268066,0.995093 0.534972,1.49293c0.132873,0.248918 0.266906,0.622586 0.266906,0.871505c0.134033,0.248338 0.266906,0.497257 0.266906,0.746175c0.134033,0.248918 0.266906,0.497837 0.266906,0.746175c0.134033,0.248918 0.134033,0.373088 0.268066,0.622006c0,0.124749 0.132873,0.248918 0.132873,0.248918c0.134033,0.373668 0.400939,0.746175 0.534972,1.119843c0.266906,0.621426 0.667264,1.368181 1.067622,1.990187c0.267486,0.373668 0.400939,0.746755 0.668424,1.120423c0.266906,0.372507 0.534391,0.870344 0.801297,1.244012c0.266906,0.372507 0.534391,0.746175 0.801297,1.119263c0.133453,0.248918 0.266906,0.373668 0.534391,0.622006c0.534391,0.622006 0.93475,1.119263 1.469141,1.741849c-3.739579,-4.478211 -6.811893,-9.953255 -8.147582,-15.924396zm-17.496818,17.790994c-2.804829,-12.192361 -2.002952,-24.882558 2.271018,-36.452333c-4.408003,11.569775 -5.342753,24.259972 -2.404471,36.452333c4.007064,19.531683 6.010016,39.438194 2.003532,59.094626l0.133453,-0.124169c4.007064,-19.532263 2.003532,-39.438774 -2.003532,-58.970457z"/>
   <path stroke="null" id="svg_31" fill="url(#svg_12)" d="m222.549414,48.789165c-3.33922,3.607286 -6.544408,7.464071 -9.482689,11.445606c0,0 0,0 0,-0.124749c2.938282,-3.856785 6.010597,-7.71357 9.482689,-11.320856z"/>
   <path stroke="null" id="svg_32" fill="url(#svg_11)" d="m326.729606,318.88538c0,-0.621426 -0.132873,-1.368181 -0.266906,-1.990767c0,-0.123589 0,-0.123589 0,-0.248338c-0.266906,-1.49293 -0.533811,-2.985861 -0.93475,-4.478791c-0.266906,-0.746175 -0.400939,-1.49293 -0.667844,-2.239105c-1.068783,-2.861692 -2.404471,-5.598634 -4.27397,-8.211407c-0.533811,-0.622006 -0.93475,-1.244012 -1.469141,-1.866598c-0.534391,-0.621426 -0.93533,-1.244012 -1.603174,-1.741849c-0.533811,-0.621426 -1.068202,-1.119263 -1.736046,-1.741268c-1.202235,-1.119263 -2.404471,-2.114936 -3.740159,-3.11061c-1.335688,-0.995674 -2.804249,-1.866018 -4.27397,-2.736942c0,0 -0.132873,-0.124169 -0.266906,-0.124169c-18.298115,-9.704337 -41.538044,-3.856785 -51.955483,13.187454c-1.336268,2.114936 -2.404471,4.354622 -3.206348,6.717896c0.801877,-2.239105 1.870079,-4.60296 3.33922,-6.717896c10.551472,-16.91949 33.657948,-22.642873 51.82261,-12.938536c12.82249,6.842646 19.767836,19.656432 19.099992,32.471379l0,0.124169c0,-0.124169 0,-0.248918 0,-0.248918c0,-0.621426 0,-1.244012 0,-1.866598c0.266906,-0.746175 0.266906,-1.49293 0.132873,-2.239105zm-12.020613,-42.424054c-12.555004,-7.71357 -27.647932,-9.827926 -41.003653,-15.551309c-13.75724,-5.847552 -26.579149,-13.560542 -37.799046,-23.01596c0,0.124749 0,0.248338 0.134033,0.497257c11.085863,9.330669 23.77374,16.92007 37.398107,22.643453c13.489754,5.722223 28.582681,7.837739 41.003653,15.550729c21.503883,13.187454 31.921322,36.452333 30.318728,60.09088c0,0.497837 0,0.995093 -0.132873,1.49293c0,0 0,0.124749 0,0.248918c0.132873,-0.124169 0.266906,-0.248918 0.400939,-0.373088c0,-0.497837 0,-0.995093 0.132873,-1.49293c1.469721,-23.638547 -8.948878,-47.027595 -30.452761,-60.09088z"/>
   <path stroke="null" id="svg_33" fill="url(#svg_10)" d="m86.046381,341.652422c0,0.124749 0.133453,0.124749 0,0c1.335688,1.119843 2.537343,2.114936 3.873031,2.986441c-1.201655,-0.871505 -2.537343,-1.866598 -3.873031,-2.986441zm53.425204,14.805134c1.469721,0 2.938282,-0.248918 4.408003,-0.497837c-1.335688,0.248918 -2.805409,0.497837 -4.408003,0.497837zm4.808941,16.91949c-4.542036,-1.49293 -8.415067,-3.11061 -12.555584,-4.851878c-12.154066,-5.100797 -23.640868,-11.321436 -34.459245,-18.661339c-0.667844,-0.497837 -1.469721,-0.995674 -2.137565,-1.49293c0.667844,0.497257 1.469721,0.995093 2.137565,1.49293c10.818378,7.339902 22.305179,13.560542 34.459245,18.661339c4.27455,1.866598 8.414487,3.484278 12.555584,4.851878c0,0.124749 0.132873,0 0.132873,0c0,0 0,0 -0.132873,0zm3.873031,-18.288251c1.602594,-0.373088 3.205187,-0.995093 4.807781,-1.617099c-1.468561,0.622006 -3.072315,1.244012 -4.807781,1.617099zm8.013549,-64.071834c1.602594,0.871505 3.205768,1.866598 4.674908,2.861692c-1.469141,-0.995093 -3.072315,-1.990187 -4.674908,-2.861692zm-1.602594,61.832148c0.266906,-0.123589 0.667844,-0.248338 0.93475,-0.372507c0.400939,-0.124749 0.667844,-0.373668 0.93533,-0.497837c-0.534391,0.248918 -1.202235,0.497837 -1.870079,0.870344zm19.50035,-41.428381c1.468561,4.105703 2.003532,8.708083 1.468561,13.311623c-0.533811,5.100797 -2.270438,9.828506 -4.807781,13.93421c0.400939,-0.621426 0.800717,-1.119263 1.068783,-1.741849c0.266906,-0.497257 0.533811,-0.995093 0.800717,-1.49293c0,-0.124749 0.134033,-0.248338 0.266906,-0.497257c0.268066,-0.497837 0.400939,-0.995093 0.667844,-1.49293c0.134033,-0.124749 0.134033,-0.373668 0.268066,-0.497837c0.266906,-0.622006 0.533811,-1.244012 0.667844,-1.866018c0.266906,-0.622006 0.399778,-1.368181 0.533811,-2.114936c0.133453,-0.497257 0.266906,-0.995674 0.266906,-1.493511c0.266906,-0.870344 0.400939,-1.865438 0.534391,-2.861111c0.267486,-4.60296 -0.267486,-8.957582 -1.736046,-13.187454zm-8.948878,34.213228c0.400939,-0.373668 0.801877,-0.746755 1.068783,-1.119843c0.266906,-0.248918 0.533811,-0.622006 0.800717,-0.870924c0.801877,-0.870924 1.469721,-1.742429 2.137565,-2.612773c0.266906,-0.248918 0.533811,-0.622006 0.667844,-0.995093c0.132873,-0.248918 0.266906,-0.373668 0.400939,-0.622586c-1.469721,2.364435 -3.206348,4.354622 -5.075847,6.22122zm-2.804249,2.363274l-0.268066,0.248918c0.134033,-0.124169 0.268066,-0.124169 0.400939,-0.248918l0.266906,-0.248918c0,0 -0.266906,0.124749 -0.399778,0.248918zm-7.346865,-88.207057c-12.954782,5.722803 -27.379866,8.210827 -39.401059,15.551309c-14.024145,8.832832 -23.907773,21.896698 -28.449229,36.577082c4.541456,-14.680385 14.425084,-27.619501 28.316356,-36.452333c12.020033,-7.340482 26.311083,-9.953255 39.400479,-15.551889c12.82191,-5.722803 24.575617,-13.062705 35.127089,-21.771949l0,-0.124169c-10.417439,8.708663 -22.171146,16.048566 -34.993636,21.771949zm36.463357,33.83956c-3.33922,-14.307297 -4.27397,-28.988262 -3.072315,-43.419728c-1.335688,14.556796 -0.266906,29.23718 2.938282,43.668646c0.93475,4.727129 1.736627,9.330669 2.003532,14.058959c-0.134033,-4.72829 -0.801877,-9.455419 -1.869499,-14.307877z"/>
   <path stroke="null" id="svg_34" fill="#D0B33E" d="m174.066024,311.421309c-0.132873,-0.622586 -0.400939,-1.244592 -0.667844,-1.866598c-0.533811,-1.244012 -1.068202,-2.488024 -1.736046,-3.607286c0,0 0,0 0,-0.124749c-0.801297,-1.49293 -1.870079,-2.985861 -2.938862,-4.354622c-2.270438,-2.861111 -4.941234,-5.349715 -7.879516,-7.589401c-1.469721,-1.119263 -3.072315,-1.990187 -4.674908,-2.860531c-0.534972,-0.248918 -1.068783,-0.622586 -1.736627,-0.871505c-1.068783,-0.497837 -2.270438,-0.995093 -3.33922,-1.49293c-7.746643,-2.98528 -16.561488,-3.732036 -25.109428,-1.368761c-2.003532,0.622586 -4.007064,1.368761 -6.010597,2.364435c-0.801297,0.372507 -1.469141,0.746175 -2.271018,1.244012c-0.132873,0 -0.132873,0.124749 -0.266906,0.124749c-0.533811,0.248338 -0.93475,0.621426 -1.469721,0.870344c-0.667844,0.497257 -1.468561,0.870924 -2.136405,1.49293c-0.266906,0.124749 -0.400939,0.248338 -0.667844,0.497257c-0.400939,0.373668 -0.801877,0.622586 -1.201655,0.995674c-0.400939,0.248338 -0.801877,0.622006 -1.202816,0.995093l-0.533811,0.497257c-0.400939,0.373668 -0.801877,0.871505 -1.201655,1.245172c-0.400939,0.497257 -0.801877,0.870344 -1.202816,1.368181c-0.400939,0.497257 -0.800717,0.870924 -1.067622,1.368761c-0.400939,0.497257 -0.667844,0.870344 -1.068783,1.367601c-0.667844,0.995674 -1.335688,1.991347 -1.87066,2.987021c-0.266906,0.497257 -0.533811,0.870344 -0.667264,1.367601c-0.267486,0.497837 -0.534391,0.871505 -0.667844,1.369341c-0.267486,0.621426 -0.534391,1.367601 -0.801297,1.990187c-0.266906,0.621426 -0.400939,1.119263 -0.534391,1.741849c-0.133453,0.497257 -0.267486,0.995093 -0.400939,1.61768c-0.400358,1.367601 -0.667844,2.736942 -0.801297,4.104543c0,0.497837 -0.133453,0.996254 -0.133453,1.494091c0,0.372507 -0.133453,0.621426 -0.133453,0.995093c-0.400939,6.220059 1.068202,12.564868 4.408003,18.41242c3.873031,6.717896 9.749595,11.944023 16.561488,15.178221c1.469141,0.746175 3.071735,1.368761 4.674908,1.866598c0.800717,0.248918 1.602594,0.497257 2.404471,0.621426c0,0 0,0 0.132873,0c0.667844,0.248918 1.469721,0.373668 2.270438,0.497837c0.266906,0 0.534972,0.124749 0.667844,0.124749c0.534972,0.124169 1.068783,0.248918 1.602594,0.248918c0.400939,0.123589 0.93475,0.123589 1.335688,0.123589c0.134033,0 0.266906,0 0.400939,0c0.667844,0 1.201655,0.124749 1.869499,0.124749c1.202816,0 2.404471,0 3.606126,0c1.469721,0 2.938862,-0.248338 4.408003,-0.497257c1.469141,-0.248918 2.804829,-0.497837 4.27455,-0.871505c1.736627,-0.497257 3.33922,-0.995093 4.807781,-1.616519c0.534972,-0.248918 1.068783,-0.497837 1.602594,-0.622586c0.667844,-0.248918 1.335688,-0.622586 1.87066,-0.995093c0.132873,0 0.266906,-0.124749 0.533811,-0.248918c0.134033,-0.124749 0.266906,-0.124749 0.533811,-0.248918c0.268066,-0.124749 0.667844,-0.373668 0.93475,-0.497257c0.134033,-0.124749 0.268066,-0.124749 0.400939,-0.248918c0.534972,-0.373668 1.068783,-0.746755 1.736627,-1.120423c0.801297,-0.621426 1.602594,-1.119263 2.404471,-1.741268c0.800717,-0.622006 1.468561,-1.244012 2.270438,-1.990767c1.869499,-1.866018 3.606126,-3.980954 5.2093,-6.220059c0.132873,-0.248918 0.266906,-0.373668 0.400358,-0.622586c0,0 0.133453,-0.124749 0.133453,-0.248918c2.537343,-4.105703 4.27397,-8.832832 4.807781,-13.933629c0.134033,-4.727709 -0.399778,-9.20708 -1.869499,-13.436373zm-13.890112,9.827926c-0.268066,11.570935 -10.284566,20.901604 -22.706118,21.150523c-12.555004,0 -22.706118,-9.455419 -22.706118,-21.150523c0,-11.694524 10.151114,-21.149362 22.706118,-21.149362c12.555004,0 22.706118,9.454838 22.706118,21.149362z"/>
  </g>
 </g>
</svg>